<?xml version="1.0" encoding="UTF-8"?><svg id="Layer_1" xmlns="http://www.w3.org/2000/svg" viewBox="0 0 500 487.65"><path d="M250,0C111.95,0,0,111.92,0,250c0,110.46,71.63,204.17,170.97,237.22,12.49,2.31,17.08-5.43,17.08-12.03,0-5.96-.23-25.66-.34-46.55-69.55,15.12-84.23-29.5-84.23-29.5-11.37-28.89-27.76-36.58-27.76-36.58-22.68-15.52,1.71-15.2,1.71-15.2,25.1,1.76,38.32,25.77,38.32,25.77,22.3,38.22,58.48,27.17,72.75,20.78,2.24-16.16,8.72-27.19,15.87-33.43-55.53-6.32-113.9-27.76-113.9-123.55,0-27.29,9.77-49.6,25.76-67.1-2.6-6.3-11.15-31.72,2.42-66.16,0,0,20.99-6.72,68.77,25.63,19.94-5.54,41.33-8.32,62.58-8.42,21.25,.1,42.65,2.87,62.63,8.42,47.72-32.35,68.68-25.63,68.68-25.63,13.61,34.44,5.05,59.86,2.45,66.16,16.03,17.51,25.73,39.81,25.73,67.1,0,96.02-58.48,117.16-114.15,123.35,8.97,7.76,16.96,22.97,16.96,46.3,0,33.45-.29,60.37-.29,68.61,0,6.65,4.5,14.45,17.17,12,99.28-33.1,170.82-126.77,170.82-237.19C500,111.92,388.07,0,250,0Z" style="fill:#191717; fill-rule:evenodd;"/><path d="M94.69,358.94c-.55,1.25-2.51,1.62-4.29,.76-1.82-.82-2.83-2.51-2.24-3.76,.54-1.28,2.49-1.63,4.31-.78,1.82,.82,2.85,2.53,2.22,3.77h0Zm-3.08-2.28" style="fill:#191717;"/><path d="M104.82,370.24c-1.19,1.1-3.53,.59-5.11-1.16-1.64-1.74-1.94-4.08-.73-5.2,1.23-1.1,3.49-.59,5.13,1.16,1.64,1.76,1.96,4.08,.71,5.2h0Zm-2.39-2.56" style="fill:#191717;"/><path d="M114.67,384.64c-1.53,1.07-4.04,.07-5.59-2.15-1.53-2.22-1.53-4.89,.04-5.96,1.55-1.07,4.02-.11,5.59,2.1,1.53,2.26,1.53,4.93-.04,6.02h0Zm0,0" style="fill:#191717;"/><path d="M128.18,398.55c-1.37,1.51-4.29,1.1-6.42-.96-2.19-2.01-2.79-4.88-1.42-6.39,1.39-1.51,4.33-1.09,6.48,.96,2.17,2.01,2.83,4.89,1.37,6.39h0Zm0,0" style="fill:#191717;"/><path d="M146.81,406.62c-.61,1.96-3.42,2.85-6.25,2.01-2.83-.86-4.68-3.15-4.11-5.13,.59-1.97,3.41-2.9,6.26-2.01,2.83,.85,4.68,3.13,4.09,5.12h0Zm0,0" style="fill:#191717;"/><path d="M167.27,408.12c.07,2.06-2.33,3.77-5.3,3.81-2.99,.07-5.41-1.6-5.44-3.63,0-2.08,2.35-3.77,5.34-3.82,2.97-.06,5.41,1.6,5.41,3.65h0Zm0,0" style="fill:#191717;"/><path d="M186.3,404.88c.36,2.01-1.71,4.08-4.66,4.63-2.9,.53-5.59-.71-5.96-2.7-.36-2.06,1.74-4.13,4.64-4.66,2.96-.51,5.6,.7,5.98,2.74h0Zm0,0" style="fill:#191717;"/></svg>