<?xml version="1.0" standalone="no"?>
<!DOCTYPE svg PUBLIC "-//W3C//DTD SVG 20010904//EN"
 "http://www.w3.org/TR/2001/REC-SVG-20010904/DTD/svg10.dtd">
<svg version="1.0" xmlns="http://www.w3.org/2000/svg"
 width="1080.000000pt" height="1080.000000pt" viewBox="0 0 1080.000000 1080.000000"
 preserveAspectRatio="xMidYMid meet">
<metadata>
Created by potrace 1.14, written by Peter Selinger 2001-2017
</metadata>
<g transform="translate(0.000000,1080.000000) scale(0.100000,-0.100000)"
fill="#000000" stroke="none">
<path d="M5128 10795 c-2 -2 -50 -6 -108 -9 -58 -4 -118 -9 -135 -11 -16 -2
-50 -6 -75 -9 -25 -3 -65 -8 -90 -11 -241 -28 -631 -119 -925 -217 -442 -147
-935 -399 -1303 -666 -65 -48 -308 -237 -328 -256 -6 -6 -38 -33 -70 -61 -79
-67 -387 -375 -449 -449 -28 -33 -60 -71 -73 -84 -12 -14 -33 -38 -45 -54 -12
-16 -49 -64 -83 -106 -373 -475 -673 -1065 -850 -1677 -20 -66 -37 -131 -40
-145 -3 -14 -11 -50 -19 -80 -19 -75 -61 -288 -70 -355 -2 -11 -6 -33 -8 -50
-12 -69 -29 -221 -44 -397 -4 -51 -8 -390 -8 -753 0 -575 5 -788 20 -910 6
-47 14 -115 20 -170 4 -27 13 -88 21 -135 8 -47 16 -98 19 -115 5 -28 28 -138
41 -195 3 -14 10 -43 14 -65 58 -273 211 -695 366 -1010 213 -434 422 -746
764 -1140 75 -86 360 -366 460 -451 154 -132 310 -251 472 -361 18 -13 38 -27
43 -31 6 -5 80 -51 165 -102 149 -90 399 -222 545 -287 172 -77 461 -183 620
-228 33 -10 80 -23 105 -31 57 -17 280 -69 340 -80 160 -29 254 -44 295 -49
28 -3 64 -7 80 -10 173 -28 740 -41 975 -22 145 11 196 16 227 21 15 3 66 10
113 16 401 53 856 179 1260 350 80 34 252 114 284 132 11 5 53 28 95 50 61 32
266 153 376 221 59 37 284 195 295 207 3 3 46 37 95 75 50 38 95 74 101 80 6
5 40 35 75 65 102 88 417 406 505 510 170 200 413 538 490 680 10 19 21 37 25
40 18 17 208 385 262 508 101 232 209 538 262 742 18 70 74 324 80 360 4 25 9
52 10 60 1 8 6 35 10 60 4 25 9 52 10 61 2 9 6 40 10 70 4 30 9 70 11 89 6 43
11 97 21 220 18 215 8 1579 -12 1675 -2 11 -7 49 -10 84 -6 69 -11 104 -25
191 -26 154 -46 258 -65 340 -9 36 -18 76 -21 90 -9 44 -25 104 -39 147 -8 23
-16 52 -19 65 -8 42 -97 301 -146 423 -138 344 -276 607 -499 950 -14 22 -28
42 -31 45 -3 3 -28 37 -55 75 -81 117 -193 257 -335 420 -44 50 -365 371 -405
405 -71 59 -160 135 -165 140 -8 9 -278 210 -340 253 -258 179 -618 372 -925
497 -171 69 -460 168 -497 170 -4 1 -27 8 -50 16 -109 38 -475 114 -668 138
-25 3 -63 8 -85 12 -124 17 -382 31 -607 31 -141 1 -258 0 -260 -2z"/>
</g>
</svg>
